<?xml version="1.0" encoding="utf-8"?><svg version="1.1" id="Layer_1" xmlns="http://www.w3.org/2000/svg" xmlns:xlink="http://www.w3.org/1999/xlink" x="0px" y="0px" viewBox="0 0 122.25 122.88" style="enable-background:new 0 0 122.25 122.88" xml:space="preserve"><g><path d="M73.86,34.89c-1.51-0.81-3.03-2.07-4.69-3.73c-0.33-0.33-0.77-0.5-1.21-0.5c-0.44,0-0.88,0.16-1.21,0.49l0,0L6.82,91.1 c-4.33,4.33-3.85,10.36-0.98,15.7c1.15,2.13,2.66,4.15,4.41,5.92c1.74,1.77,3.72,3.29,5.78,4.42c4.89,2.68,10.26,3.14,14.03-0.63 l61.02-61.02c0.33-0.33,0.5-0.77,0.5-1.21c0-0.44-0.16-0.88-0.49-1.21h-0.01c-1.74-1.74-3.07-3.31-3.9-4.86 C81.22,46.93,75.13,41.1,73.86,34.89L73.86,34.89z M65.42,67.62c0.7-0.7,1.84-0.7,2.54,0s0.7,1.84,0,2.54l-35.96,35.96 c-0.7,0.7-1.84,0.7-2.54,0c-0.7-0.7-0.7-1.84,0-2.54L65.42,67.62L65.42,67.62z M112.43,0.7l9.13,9.13c0.46,0.46,0.7,1.08,0.7,1.69 c0,0.61-0.23,1.22-0.7,1.69l-8.8,8.8l-0.01,0c-0.47,0.46-1.07,0.7-1.68,0.7c-0.38,0-0.76-0.09-1.1-0.27 c-1.57,1.54-3.36,3.24-5.19,4.99c-4.7,4.48-9.67,9.22-13.27,13.51c-1.45,1.73-1.93,3.1-1.63,4.39c0.36,1.49,1.69,3.15,3.76,5.22 l0,0c1.04,1.04,1.55,2.4,1.55,3.75c0,1.36-0.52,2.72-1.55,3.75l-61.02,61.02c-5.11,5.11-12.08,4.65-18.31,1.23 c-2.36-1.3-4.62-3.03-6.61-5.05c-1.99-2.01-3.71-4.31-5.02-6.74c-3.58-6.66-4.06-14.29,1.6-19.95l59.94-59.94l0.01,0 c1.03-1.03,2.39-1.55,3.75-1.55c1.36,0,2.72,0.52,3.75,1.55c2.02,2.02,3.68,3.29,5.18,3.64c1.31,0.3,2.69-0.15,4.37-1.5 c4.21-3.39,9.21-8.65,13.81-13.49c1.68-1.77,3.3-3.48,4.75-4.96c-0.18-0.34-0.27-0.72-0.27-1.1c0-0.61,0.23-1.22,0.7-1.69l8.8-8.8 h0.01c0.47-0.46,1.08-0.7,1.68-0.7C111.35,0,111.96,0.23,112.43,0.7L112.43,0.7z"/></g></svg>